<svg xmlns="http://www.w3.org/2000/svg" version="1.1" xmlns:xlink="http://www.w3.org/1999/xlink" xmlns:svgjs="http://svgjs.dev/svgjs" width="1000" height="623" viewBox="0 0 1000 623"><g transform="matrix(1,0,0,1,-0.6060606060606233,0.2522267206477409)"><svg viewBox="0 0 396 247" data-background-color="#ffffff" preserveAspectRatio="xMidYMid meet" height="623" width="1000" xmlns="http://www.w3.org/2000/svg" xmlns:xlink="http://www.w3.org/1999/xlink"><g id="tight-bounds" transform="matrix(1,0,0,1,0.2400000000000091,-0.09999999999999432)"><svg viewBox="0 0 395.52 247.2" height="247.2" width="395.52"><g><svg></svg></g><g><svg viewBox="0 0 395.52 247.2" height="247.2" width="395.52"><g transform="matrix(1,0,0,1,86.96576499321574,47.215199999999996)"><svg viewBox="0 0 221.5884700135685 152.7696" height="152.7696" width="221.5884700135685"><g><svg viewBox="0 0 221.5884700135685 152.7696" height="152.7696" width="221.5884700135685"><g><svg viewBox="0 0 221.5884700135685 152.7696" height="152.7696" width="221.5884700135685"><g><svg viewBox="0 0 221.5884700135685 152.7696" height="152.7696" width="221.5884700135685"><g id="textblocktransform"><svg viewBox="0 0 221.5884700135685 152.7696" height="152.7696" width="221.5884700135685" id="textblock"><g><svg viewBox="0 0 221.5884700135685 152.7696" height="152.7696" width="221.5884700135685"><g transform="matrix(1,0,0,1,0,0)"><svg width="221.5884700135685" viewBox="4.45 -36.45 53.449999999999996 36.85" height="152.7696" data-palette-color="#0074d9"><path d="M9.95 0L4.45 0 4.45-36.25 14.35-36.25Q17.2-36.25 19.58-35.5 21.95-34.75 23.68-33.27 25.4-31.8 26.35-29.68 27.3-27.55 27.3-24.8L27.3-24.8Q27.3-23.3 27-21.83 26.7-20.35 26.03-18.98 25.35-17.6 24.3-16.43 23.25-15.25 21.75-14.45L21.75-14.45Q23.75-11.3 26.1-7.48 28.45-3.65 30.85 0L30.85 0 24.3 0Q23.3-1.55 22.23-3.25 21.15-4.95 20.08-6.63 19-8.3 17.98-9.93 16.95-11.55 16.05-12.95L16.05-12.95 15.05-12.95 9.95-12.95 9.95 0ZM9.95-31.15L9.95-18.1 14.9-18.1Q16.9-18.1 18.25-18.78 19.6-19.45 20.38-20.45 21.15-21.45 21.48-22.6 21.8-23.75 21.8-24.7L21.8-24.7Q21.8-25.65 21.48-26.78 21.15-27.9 20.35-28.88 19.55-29.85 18.23-30.5 16.9-31.15 14.95-31.15L14.95-31.15 9.95-31.15ZM56.6-34.25L56.6-34.25 54.65-29.8Q52.6-30.55 50.57-31 48.55-31.45 46.7-31.45L46.7-31.45Q43.55-31.45 41.67-30.15 39.8-28.85 39.8-26.85L39.8-26.85Q39.8-25.15 41.15-24.13 42.5-23.1 44.5-22.28 46.5-21.45 48.85-20.63 51.2-19.8 53.2-18.5 55.2-17.2 56.55-15.23 57.9-13.25 57.9-10.15L57.9-10.15Q57.9-7.75 57.02-5.83 56.15-3.9 54.42-2.5 52.7-1.1 50.12-0.35 47.55 0.4 44.1 0.4L44.1 0.4Q41.9 0.4 40.12 0.1 38.35-0.2 36.92-0.68 35.5-1.15 34.42-1.7 33.35-2.25 32.6-2.7L32.6-2.7 35-7.45Q37-6.3 39.45-5.6 41.9-4.9 43.9-4.9L43.9-4.9Q44.9-4.9 46.37-5.15 47.85-5.4 49.2-6.03 50.55-6.65 51.52-7.7 52.5-8.75 52.5-10.35L52.5-10.35Q52.5-11.8 51.72-12.83 50.95-13.85 49.67-14.63 48.4-15.4 46.77-16.03 45.15-16.65 43.45-17.32 41.75-18 40.12-18.75 38.5-19.5 37.22-20.58 35.95-21.65 35.17-23.08 34.4-24.5 34.4-26.5L34.4-26.5Q34.4-28.35 35.15-30.15 35.9-31.95 37.4-33.35 38.9-34.75 41.12-35.6 43.35-36.45 46.3-36.45L46.3-36.45Q48.1-36.45 49.82-36.15 51.55-35.85 52.95-35.48 54.35-35.1 55.32-34.75 56.3-34.4 56.6-34.25Z" opacity="1" transform="matrix(1,0,0,1,0,0)" fill="#0074d9" class="undefined-text-0" data-fill-palette-color="primary" id="text-0"></path></svg></g></svg></g></svg></g></svg></g></svg></g></svg></g></svg></g><path d="M126.253 41.215L126.253 0 373.453 0 373.453 247.2 126.253 247.2 126.253 205.985 140.03 205.985 140.03 233.423 359.676 233.423 359.676 13.777 140.03 13.777 140.03 41.215Z" fill="#0074d9" stroke="transparent" data-fill-palette-color="primary"></path></svg></g><defs></defs></svg><rect width="395.52" height="247.2" fill="none" stroke="none" visibility="hidden"></rect></g></svg></g></svg>